PathFileType  4	(X/Y/Z) C:\Users\wagnerel85475\Documents\Thesis\opencap-core\Data\3375ffbc-daeb-4a43-b4f7-ac9899cd4c71\MarkerData\PreAugmentation
DataRate	CameraRate	NumFrames	NumMarkers	Units	OrigDataRate	OrigDataStartFrame	OrigNumFrames
60.0	60.0	15	20	m	60.0	512	585
Frame#	Time	Neck			RShoulder			RElbow			RWrist			LShoulder			LElbow			LWrist			midHip			RHip			RKnee			RAnkle			LHip			LKnee			LAnkle			LBigToe			LSmallToe			LHeel			RBigToe			RSmallToe			RHeel			
		X1	Y1	Z1	X2	Y2	Z2	X3	Y3	Z3	X4	Y4	Z4	X5	Y5	Z5	X6	Y6	Z6	X7	Y7	Z7	X8	Y8	Z8	X9	Y9	Z9	X10	Y10	Z10	X11	Y11	Z11	X12	Y12	Z12	X13	Y13	Z13	X14	Y14	Z14	X15	Y15	Z15	X16	Y16	Z16	X17	Y17	Z17	X18	Y18	Z18	X19	Y19	Z19	X20	Y20	Z20	

512	8.5166667	1.7246800	0.7480200	0.0016600	1.7283900	0.7480300	0.1688200	1.7465800	0.4781200	0.3020300	1.9466800	0.2684700	0.3331300	1.7092000	0.7276900	-0.1975000	1.7807600	0.4716600	-0.3084300	1.9532700	0.2260200	-0.3562500	1.2807700	0.4289400	-0.0111700	1.2921600	0.4229400	0.1226600	1.6757200	0.2532700	0.2193700	1.4104700	-0.1627900	0.1706900	1.2766600	0.4363500	-0.1491400	1.6345700	0.2426200	-0.2533400	1.3930300	-0.1814900	-0.2306800	1.6009300	-0.2136700	-0.3091200	1.5494200	-0.2247900	-0.3404400	1.3471700	-0.2199900	-0.2218900	1.5315900	-0.2246600	0.2736200	1.5005700	-0.2206700	0.2963000	1.3596900	-0.2135000	0.1444200
513	8.5333333	1.7251000	0.7581000	0.0025700	1.7258600	0.7576000	0.1701600	1.7508300	0.4905800	0.2989300	1.9473200	0.2795400	0.3320700	1.7048900	0.7440000	-0.1939500	1.7814700	0.4822600	-0.3033300	1.9531500	0.2388300	-0.3548000	1.2812000	0.4361900	-0.0114900	1.3002300	0.4347500	0.1244800	1.6694700	0.2400000	0.2332700	1.4095400	-0.1626600	0.1710900	1.2763800	0.4398200	-0.1494600	1.6397000	0.2449200	-0.2559200	1.3928000	-0.1817000	-0.2306900	1.5994900	-0.2144900	-0.3099400	1.5488400	-0.2226200	-0.3417500	1.3463600	-0.2210800	-0.2225600	1.5313000	-0.2286600	0.2721800	1.5045100	-0.2168800	0.2925700	1.3584500	-0.2113100	0.1437100
514	8.5500000	1.7144200	0.7601400	0.0020400	1.7209900	0.7583700	0.1670800	1.7470800	0.4966400	0.3020400	1.9411800	0.2815800	0.3303700	1.7088200	0.7585400	-0.1906200	1.7811400	0.4885800	-0.3039500	1.9563200	0.2584000	-0.3458500	1.2680700	0.4450300	-0.0033000	1.2989700	0.4444100	0.1257600	1.6639700	0.2401300	0.2299600	1.4039000	-0.1660500	0.1681600	1.2743500	0.4510400	-0.1499000	1.6345100	0.2452000	-0.2539300	1.3931100	-0.1782000	-0.2298600	1.6009900	-0.2136200	-0.3091800	1.5495200	-0.2247500	-0.3405200	1.3535600	-0.2143600	-0.2179200	1.5430700	-0.2192700	0.2722700	1.5005900	-0.2204000	0.2964000	1.3454600	-0.2236400	0.1382700
515	8.5666667	1.7146500	0.7651100	0.0028400	1.7154500	0.7694100	0.1709700	1.7469400	0.5025600	0.3022700	1.9413200	0.2987500	0.3320700	1.7045700	0.7575600	-0.1935500	1.7816700	0.4902700	-0.3036400	1.9530200	0.2650300	-0.3440400	1.2757500	0.4476400	-0.0005700	1.2986800	0.4492400	0.1257200	1.6710900	0.2531200	0.2228500	1.4020700	-0.1668300	0.1670700	1.2752200	0.4537100	-0.1432500	1.6399800	0.2502700	-0.2570000	1.3928000	-0.1784900	-0.2299100	1.5995100	-0.2144000	-0.3099600	1.5488900	-0.2196100	-0.3411100	1.3527700	-0.2157100	-0.2186000	1.5378100	-0.2222500	0.2752000	1.4996600	-0.2213700	0.2968400	1.3370800	-0.2243300	0.1348400
516	8.5833333	1.7139600	0.7746900	0.0026300	1.7226800	0.7838000	0.1735100	1.7537200	0.5074500	0.3037500	1.9354100	0.3020500	0.3299700	1.7089600	0.7641400	-0.1906500	1.7805100	0.5018000	-0.3026400	1.9507500	0.2769700	-0.3422900	1.2753100	0.4531400	-0.0001100	1.2984900	0.4549000	0.1263200	1.6712100	0.2524400	0.2226000	1.3958400	-0.1732400	0.1634700	1.2814600	0.4571700	-0.1401000	1.6347800	0.2475900	-0.2544900	1.3868700	-0.1809600	-0.2266000	1.6009500	-0.2135600	-0.3091900	1.5494400	-0.2193600	-0.3405400	1.3535600	-0.2148500	-0.2178900	1.5382300	-0.2217800	0.2759300	1.5006100	-0.2207800	0.2963700	1.3441700	-0.2199900	0.1375100
517	8.6000000	1.7146100	0.7964700	0.0032000	1.7167200	0.7961600	0.1706700	1.7537600	0.5236700	0.3034900	1.9321900	0.3059500	0.3335400	1.7047700	0.7741400	-0.1870600	1.7759300	0.5188000	-0.3053300	1.9477700	0.2884800	-0.3456400	1.2752100	0.4576100	-0.0001400	1.2908500	0.4564100	0.1233300	1.6713600	0.2545500	0.2224600	1.3872400	-0.1766800	0.1597000	1.2753100	0.4600700	-0.1361500	1.6349200	0.2503900	-0.2607400	1.3927900	-0.1784400	-0.2298100	1.5994500	-0.2118200	-0.3106500	1.5489600	-0.2195100	-0.3411300	1.3528000	-0.2155100	-0.2184700	1.5429600	-0.2198800	0.2715000	1.5046200	-0.2193400	0.2931200	1.3287100	-0.2299200	0.1313900
518	8.6166667	1.7090400	0.8021300	0.0063300	1.7110100	0.8033000	0.1751600	1.7471800	0.5403100	0.3024300	1.9266700	0.3146500	0.3299600	1.7139200	0.7958100	-0.1866500	1.7753700	0.5275200	-0.3057000	1.9431500	0.2974800	-0.3436800	1.2754800	0.4594600	-0.0000500	1.2978600	0.4607000	0.1271400	1.6526300	0.2452500	0.2371700	1.3882000	-0.1708500	0.1594300	1.2887600	0.4687100	-0.1363900	1.6298000	0.2531100	-0.2582400	1.3931200	-0.1782400	-0.2298400	1.6008000	-0.2081800	-0.3092900	1.5494600	-0.2193100	-0.3405900	1.3538600	-0.2177100	-0.2171300	1.5432300	-0.2193800	0.2722700	1.5054100	-0.2186900	0.2927400	1.3295200	-0.2257800	0.1319300
519	8.6333333	1.7035500	0.8090100	0.0039000	1.6999600	0.8095000	0.1759500	1.7427700	0.5448500	0.3061600	1.9211200	0.3245600	0.3284300	1.7044800	0.8026100	-0.1867700	1.7656100	0.5396000	-0.3064800	1.9391200	0.3038900	-0.3464700	1.2953100	0.4687800	-0.0046900	1.3043700	0.4654300	0.1221500	1.6421900	0.2465500	0.2455500	1.3875600	-0.1673000	0.1604400	1.2959000	0.4711800	-0.1400400	1.6300000	0.2564600	-0.2581900	1.3928900	-0.1784200	-0.2298400	1.5994200	-0.2089300	-0.3099900	1.5433700	-0.2218700	-0.3443600	1.3532200	-0.2187400	-0.2176900	1.5364200	-0.2207200	0.2685500	1.5046800	-0.2173000	0.2924000	1.3345100	-0.2207300	0.1276800
520	8.6500000	1.7028200	0.8216300	0.0034900	1.7055600	0.8308900	0.1726100	1.7358600	0.5543700	0.3118200	1.9205500	0.3365200	0.3296800	1.7032400	0.8109800	-0.1866100	1.7646900	0.5555100	-0.3054900	1.9374300	0.3125500	-0.3456300	1.3080200	0.4711500	-0.0119800	1.3220800	0.4700800	0.1117800	1.6369500	0.2440400	0.2493800	1.3954200	-0.1645400	0.1627600	1.3023800	0.4741700	-0.1371300	1.6303800	0.2582300	-0.2593400	1.3931600	-0.1751500	-0.2292000	1.5953700	-0.2134700	-0.3132000	1.5439100	-0.2217400	-0.3438400	1.3538300	-0.2173500	-0.2170900	1.5368800	-0.2201300	0.2693200	1.5056100	-0.2166100	0.2920000	1.3424200	-0.2172200	0.1304500
521	8.6666667	1.7030300	0.8433800	0.0045200	1.6942100	0.8423400	0.1805700	1.7247100	0.5657700	0.3137000	1.9172000	0.3476800	0.3328300	1.7043700	0.8224400	-0.1867800	1.7597600	0.5717000	-0.3094000	1.9310500	0.3297000	-0.3478200	1.3020600	0.4769100	-0.0084000	1.3161100	0.4758800	0.1152800	1.6370100	0.2459900	0.2492300	1.4016600	-0.1613800	0.1656800	1.3023000	0.4868800	-0.1376100	1.6242800	0.2605200	-0.2551100	1.3930100	-0.1783700	-0.2297900	1.5998500	-0.2114000	-0.3092400	1.5489500	-0.2195500	-0.3410900	1.3592900	-0.2157200	-0.2144800	1.5364200	-0.2208000	0.2685500	1.5046200	-0.2173700	0.2923700	1.3557500	-0.2113500	0.1357800
522	8.6833333	1.7026600	0.8525600	0.0036900	1.6886900	0.8516400	0.1779300	1.7193600	0.5798600	0.3188500	1.9132600	0.3552600	0.3354400	1.7030400	0.8452600	-0.1867200	1.7537000	0.5885200	-0.3114300	1.9242500	0.3389100	-0.3499700	1.3011300	0.4948700	-0.0079800	1.3152100	0.4912600	0.1162300	1.6377400	0.2475800	0.2481500	1.4022800	-0.1648700	0.1646500	1.2953000	0.5007100	-0.1336900	1.6242300	0.2602000	-0.2555400	1.3870300	-0.1840600	-0.2272300	1.6010000	-0.2135300	-0.3092600	1.5495200	-0.2222400	-0.3412600	1.3537500	-0.2237600	-0.2105000	1.5368600	-0.2203800	0.2692900	1.4989200	-0.2197900	0.2897400	1.3562400	-0.2084500	0.1351400
523	8.7000000	1.6928200	0.8587000	0.0046600	1.6955100	0.8665900	0.1803400	1.7145800	0.5852900	0.3229400	1.8925200	0.3579200	0.3480000	1.6985700	0.8527900	-0.1830600	1.7489100	0.6008300	-0.3144700	1.9189800	0.3506200	-0.3509200	1.3014500	0.5084900	-0.0082000	1.3154300	0.5070900	0.1154100	1.6363500	0.2551300	0.2422100	1.4014100	-0.1677400	0.1642300	1.2956100	0.5115700	-0.1332400	1.6239600	0.2613100	-0.2548700	1.3867000	-0.1841300	-0.2271200	1.6050700	-0.2119000	-0.3067800	1.5489500	-0.2225100	-0.3417500	1.3465300	-0.2273400	-0.2076200	1.5433000	-0.2216100	0.2699100	1.5047700	-0.2173500	0.2922900	1.3559600	-0.2084800	0.1352400
524	8.7166667	1.7034000	0.8875500	0.0105300	1.6902300	0.8852300	0.1846900	1.7157900	0.6049200	0.3216600	1.8880200	0.3721100	0.3531600	1.7026200	0.8732000	-0.1795700	1.7378600	0.6236600	-0.3143400	1.8953400	0.3610800	-0.3609800	1.3010600	0.5177500	-0.0075400	1.3145100	0.5152700	0.1089500	1.6373900	0.2595400	0.2406700	1.3951200	-0.1680600	0.1607400	1.2953100	0.5208700	-0.1329000	1.6181000	0.2655300	-0.2585900	1.3928600	-0.1753500	-0.2226600	1.6062200	-0.2088600	-0.3069100	1.5496500	-0.2223100	-0.3412400	1.3472900	-0.2207000	-0.2056100	1.5437500	-0.2209300	0.2707500	1.5056300	-0.2166400	0.2920000	1.3564200	-0.2059300	0.1344300
525	8.7333333	1.6918800	0.8960800	0.0055700	1.6825300	0.8982000	0.1825000	1.7100000	0.6239900	0.3265500	1.8847100	0.3858000	0.3547000	1.6879200	0.8911200	-0.1760800	1.7228800	0.6315500	-0.3115700	1.8782000	0.3697100	-0.3572400	1.2955400	0.5227200	-0.0045300	1.3161500	0.5228900	0.1154000	1.6528500	0.2716100	0.2283700	1.4013200	-0.1648200	0.1635300	1.3020400	0.5264600	-0.1298800	1.6119000	0.2732300	-0.2534100	1.3927000	-0.1753200	-0.2225900	1.5996300	-0.2117900	-0.3105900	1.5490500	-0.2225500	-0.3417700	1.3474500	-0.2164300	-0.2046300	1.5434600	-0.2217200	0.2698400	1.5046600	-0.2195300	0.2929200	1.3560100	-0.2061000	0.1344400
526	8.7500000	1.6859600	0.9133100	0.0016200	1.6787600	0.9204600	0.1793800	1.7118000	0.6450300	0.3250000	1.8745900	0.3940500	0.3564300	1.6914500	0.9004300	-0.1794200	1.7116900	0.6401000	-0.3061000	1.8669800	0.3840700	-0.3560200	1.2951300	0.5307100	-0.0045300	1.3099700	0.5271300	0.1198600	1.6311700	0.2715100	0.2380300	1.3951800	-0.1680700	0.1607900	1.3015200	0.5432300	-0.1304500	1.6115400	0.2808600	-0.2522700	1.3929200	-0.1752700	-0.2226600	1.6007100	-0.2111900	-0.3100300	1.5496300	-0.2223200	-0.3412300	1.3540700	-0.2154000	-0.2082100	1.5438200	-0.2210200	0.2707400	1.5056200	-0.2166700	0.2919700	1.3564100	-0.2057900	0.1344900
